<svg xmlns="http://www.w3.org/2000/svg" width="151.325" height="37.791" viewBox="0 0 151.325 37.791"><g transform="translate(-694.643 -366.668)"><path d="M713.538,366.668a18.9,18.9,0,0,1,0,37.791H695.287a.644.644,0,0,1-.644-.644v-5.905a.644.644,0,0,1,.644-.644h18.252a11.7,11.7,0,1,0,0-23.4h-11.3a.4.4,0,0,0-.4.4v6.161a.644.644,0,0,1-.644.644h-5.906a.644.644,0,0,1-.644-.644V367.312a.644.644,0,0,1,.644-.644Z" transform="translate(0 0)" fill="#191919"></path> <g transform="translate(744.052 372.137)"><g transform="translate(92.285 2.44)"><path d="M982.715,386.864l.016-4.012a.286.286,0,0,1,.287-.285l2.634.012a.285.285,0,0,1,.284.287l-.016,4.012,2.921.013a.285.285,0,0,1,.285.285l-.011,2.626a.286.286,0,0,1-.287.285l-2.921-.013-.058,12.6a.286.286,0,0,1-.287.285l-2.635-.012a.286.286,0,0,1-.284-.286l.059-12.6-2.921-.013a.286.286,0,0,1-.284-.287l.011-2.626a.285.285,0,0,1,.279-.283h.008Z" transform="translate(-979.496 -382.568)" fill="#191919"></path></g> <path d="M927.86,392.355v-1.18a.285.285,0,0,1,.284-.286h2.618a.284.284,0,0,1,.285.286v15.51a.284.284,0,0,1-.285.286h-2.618a.285.285,0,0,1-.284-.286V405.5a8.376,8.376,0,1,1,0-13.15Zm0,6.575a5.188,5.188,0,1,0-5.187,5.188A5.188,5.188,0,0,0,927.86,398.93Z" transform="translate(-854.444 -384.142)" fill="#191919"></path> <path d="M877.81,405.525v7.927a.286.286,0,0,1-.286.285h-2.617a.285.285,0,0,1-.286-.285V391.194a.286.286,0,0,1,.286-.286h2.617a.286.286,0,0,1,.286.286v1.178a8.375,8.375,0,1,1,0,13.153Zm10.375-6.576A5.187,5.187,0,1,0,883,404.135,5.187,5.187,0,0,0,888.184,398.949Z" transform="translate(-834.504 -384.151)" fill="#191919"></path> <path d="M837.721,400.524a5.189,5.189,0,0,0,4.937,3.593,5.075,5.075,0,0,0,4.295-2.045v0a.285.285,0,0,1,.315-.1l2.548.91a.285.285,0,0,1,.153.412,8.172,8.172,0,0,1-7.313,4.014,8.376,8.376,0,1,1,8.375-8.376,8.468,8.468,0,0,1-.108,1.357h0a.285.285,0,0,1-.281.238Zm9.874-3.188a5.188,5.188,0,0,0-9.874,0Z" transform="translate(-814.231 -384.142)" fill="#191919"></path> <path d="M807.534,399.027a8.376,8.376,0,1,1,0-13.152v-7.926a.286.286,0,0,1,.286-.286h2.617a.286.286,0,0,1,.285.286v22.258a.285.285,0,0,1-.285.285h-2.617a.285.285,0,0,1-.286-.285Zm0-6.576a5.187,5.187,0,1,0-5.186,5.188A5.187,5.187,0,0,0,807.534,392.451Z" transform="translate(-793.972 -377.663)" fill="#191919"></path> <g transform="translate(80.548 6.737)"><path d="M959.155,393.02a7.53,7.53,0,0,1,4.91-1.793.286.286,0,0,1,.284.287l-.011,2.592a.286.286,0,0,1-.274.284,5.231,5.231,0,0,0-4.937,5.206l-.036,7.42a.285.285,0,0,1-.286.285l-2.618-.011A.286.286,0,0,1,955.9,407l.071-15.51a.286.286,0,0,1,.287-.284l2.617.012a.285.285,0,0,1,.284.286Z" transform="translate(-955.902 -391.207)" fill="#191919"></path></g></g></g></svg>